<svg width="42" height="42" viewBox="0 0 42 42" fill="none" xmlns="http://www.w3.org/2000/svg">
<rect width="42" height="42" fill="#FF1B15"/>
<path d="M12.8335 22.1666C12.1892 22.1666 11.6669 21.6443 11.6669 21C11.6669 20.3556 12.1892 19.8333 12.8335 19.8333L29.1669 19.8333C29.8112 19.8333 30.3335 20.3556 30.3335 21C30.3335 21.6443 29.8112 22.1666 29.1669 22.1666L12.8335 22.1666Z" fill="white"/>
<path d="M22.1668 29.1666C22.1668 29.811 21.6445 30.3333 21.0002 30.3333C20.3558 30.3333 19.8335 29.811 19.8335 29.1666L19.8335 12.8333C19.8335 12.189 20.3558 11.6666 21.0002 11.6666C21.6445 11.6666 22.1668 12.189 22.1668 12.8333L22.1668 29.1666Z" fill="white"/>
</svg>
