<svg width="140" height="60" viewBox="0 0 140 60" fill="none" xmlns="http://www.w3.org/2000/svg">
<rect width="140" height="60" fill="#FF1B15"/>
<path d="M89.359 23.799C89.0939 23.7745 88.8275 23.8271 88.5917 23.9506C88.3559 24.0741 88.1608 24.2632 88.03 24.495C86.4471 27.5088 85.2997 30.7319 84.622 34.068C84.613 34.1921 84.6303 34.3167 84.6729 34.4336C84.7155 34.5506 84.7823 34.6571 84.869 34.7464C84.9557 34.8357 85.0604 34.9055 85.176 34.9515C85.2916 34.9974 85.4157 35.0184 85.54 35.013C86.251 35.013 86.647 34.521 86.998 33.927C88.4027 31.0154 89.459 27.9482 90.145 24.789C90.163 24.336 90.1 23.808 89.359 23.799ZM89.743 18C88.4583 17.9516 87.1794 18.1966 86.0036 18.7164C84.8277 19.2362 83.7858 20.0172 82.957 21C82.7816 20.6142 82.5445 20.2595 82.255 19.95C81.4974 19.2263 80.5932 18.6738 79.6037 18.3296C78.6141 17.9854 77.5622 17.8577 76.519 17.955C74.3027 17.889 72.135 18.6119 70.402 19.995C69.8352 19.2879 69.1038 18.7303 68.2718 18.3711C67.4397 18.0118 66.5324 17.8617 65.629 17.934C64.1386 17.7406 62.6237 17.9535 61.2443 18.5502C59.865 19.147 58.6725 20.1053 57.793 21.324C57.8325 20.9132 57.7868 20.4987 57.6588 20.1064C57.5307 19.7141 57.3232 19.3524 57.049 19.044C56.6279 18.6825 56.1384 18.4094 55.6096 18.2409C55.0809 18.0724 54.5236 18.0119 53.971 18.063C52.9854 18.0372 52.0118 18.2847 51.1582 18.7782C50.3047 19.2717 49.6044 19.9919 49.135 20.859C47.482 23.499 43.468 32.199 43.558 36.414C43.5541 37.0731 43.6874 37.7259 43.9495 38.3307C44.2116 38.9355 44.5968 39.4791 45.0804 39.927C45.5641 40.3748 46.1357 40.717 46.7589 40.9319C47.382 41.1468 48.0431 41.2296 48.7 41.175C49.7508 41.2713 50.8102 41.1517 51.8132 40.8236C52.8161 40.4955 53.7413 39.9658 54.532 39.267C55.1776 39.9246 55.9536 40.4397 56.8103 40.7791C57.667 41.1186 58.5853 41.2749 59.506 41.238C60.6115 41.2952 61.7172 41.1278 62.7562 40.7457C63.7952 40.3636 64.7459 39.7748 65.551 39.015C66.2122 39.7728 67.0379 40.3695 67.965 40.7594C68.892 41.1494 69.8959 41.3223 70.9 41.265C72.3573 41.2556 73.7935 40.9166 75.1012 40.2734C76.4088 39.6302 77.554 38.6995 78.451 37.551C78.9405 38.7383 79.798 39.7373 80.8975 40.401C81.9969 41.0647 83.2804 41.358 84.559 41.238C90.442 41.238 93.025 37.194 95.179 30.798C95.8298 28.8999 96.2459 26.9292 96.418 24.93C96.5703 24.0079 96.5051 23.063 96.2276 22.1706C95.9501 21.2782 95.4679 20.463 94.8196 19.7899C94.1713 19.1168 93.3747 18.6045 92.4933 18.2937C91.6119 17.9829 90.6701 17.8824 89.743 18ZM54.316 35.682C54.016 38.73 51.232 39.414 48.802 39.357C47.041 39.315 45.454 38.508 45.409 36.462C46.2296 31.3017 48.0267 26.3452 50.704 21.858C51.0092 21.251 51.4827 20.7447 52.0678 20.3994C52.653 20.0542 53.3251 19.8846 54.004 19.911C55.462 19.911 55.825 20.661 55.804 21.561C54.9237 25.0076 53.5996 28.3253 51.865 31.431C51.352 32.487 50.905 33.414 50.602 34.092C53.65 33.564 54.4 34.665 54.316 35.682ZM60.514 31.281C60.313 31.827 59.932 32.967 59.614 34.176C60.5976 33.889 61.6197 33.7564 62.644 33.783C64.108 33.819 65.044 34.425 65.044 35.637C65.044 38.565 61.801 39.426 59.557 39.426C58.9774 39.4901 58.3908 39.4322 57.835 39.256C57.2791 39.0798 56.7663 38.7893 56.3295 38.403C55.8926 38.0167 55.5415 37.5433 55.2986 37.0132C55.0556 36.4831 54.9264 35.9081 54.919 35.325C55.2801 31.4231 56.4098 27.6313 58.243 24.168C58.7799 22.6754 59.8188 21.4157 61.1821 20.6047C62.5453 19.7936 64.1481 19.4816 65.716 19.722C67.246 19.722 69.016 20.376 69.016 21.822C69.016 23.823 67.324 24.585 65.644 24.681C64.8171 24.7349 63.988 24.7459 63.16 24.714C62.7018 25.4662 62.3151 26.2597 62.005 27.084C65.116 26.646 66.436 27.354 65.905 29.154C65.2 31.581 63.1 31.743 60.514 31.281ZM75.82 23.7C75.4516 23.7204 75.0941 23.8323 74.7798 24.0256C74.4656 24.2189 74.2044 24.4874 74.02 24.807C72.5762 27.4547 71.5128 30.2926 70.861 33.237C70.654 34.662 71.269 34.956 71.941 34.956C73.024 34.956 74.236 33.81 74.641 31.923C74.641 31.923 72.583 31.875 73.141 30.048C73.693 28.278 74.737 27.894 76.471 27.825C79.888 27.684 79.549 30.207 79.276 31.551C79.0281 33.6429 78.0494 35.5801 76.5126 37.0208C74.9758 38.4616 72.9795 39.3134 70.876 39.426C70.2295 39.5013 69.5744 39.4319 68.958 39.2229C68.3417 39.0138 67.7795 38.6702 67.3123 38.2171C66.8451 37.7639 66.4845 37.2126 66.2567 36.6029C66.0289 35.9932 65.9395 35.3405 65.995 34.692C66.2131 32.0584 66.8702 29.4798 67.939 27.063C69.796 22.8 71.716 19.8 76.6 19.8C79.537 19.8 81.85 20.853 81.511 23.601C81.525 24.4498 81.2114 25.2713 80.6354 25.8948C80.0594 26.5183 79.2652 26.8959 78.418 26.949C77.905 26.988 75.805 26.949 76.501 24.951C76.75 24.261 76.852 23.7 75.82 23.7ZM94.294 27.3C93.6918 30.0566 92.6998 32.7133 91.348 35.19C90.7902 36.4971 89.844 37.6011 88.6376 38.3524C87.4313 39.1037 86.0231 39.4659 84.604 39.39C82.42 39.363 79.957 38.559 79.939 35.19C80.1266 32.4117 80.7733 29.6838 81.853 27.117C83.401 23.061 84.976 19.752 89.953 19.809C95.782 19.899 94.744 25.074 94.3 27.327L94.294 27.3ZM100 0H40V60H100V0ZM97.699 27.216V27.24C97.1746 29.9485 96.3245 32.5837 95.167 35.088C93.067 39.42 90.253 42.75 84.841 42.75C83.5982 42.8364 82.352 42.6381 81.1974 42.1702C80.0428 41.7023 79.0101 40.9772 78.178 40.05C76.1699 41.8204 73.58 42.789 70.903 42.771C68.9752 42.8215 67.0877 42.2142 65.551 41.049C63.7776 42.2144 61.6904 42.81 59.569 42.756C57.763 42.7947 55.9908 42.2624 54.505 41.235C52.7575 42.3039 50.7236 42.8097 48.679 42.684C47.8376 42.7368 46.9942 42.6186 46.1998 42.3365C45.4053 42.0543 44.6763 41.6141 44.0567 41.0425C43.437 40.4708 42.9397 39.7795 42.5946 39.0103C42.2496 38.2411 42.064 37.4099 42.049 36.567C41.947 31.824 45.949 23.148 47.824 20.142C48.4415 19.0486 49.342 18.1418 50.4311 17.5168C51.5202 16.8917 52.7575 16.5716 54.013 16.59C56.872 16.59 57.913 17.406 58.417 18.447C60.5048 16.9508 63.0576 16.2478 65.617 16.464C67.411 16.3707 69.1773 16.935 70.585 18.051C72.3899 16.989 74.4554 16.4518 76.549 16.5C77.7548 16.4023 78.9681 16.547 80.1171 16.9257C81.2661 17.3044 82.3276 17.9094 83.239 18.705C85.0899 17.2283 87.4064 16.4593 89.773 16.536C91.0605 16.4329 92.3534 16.6511 93.5358 17.171C94.7181 17.691 95.7528 18.4964 96.547 19.515C97.2496 20.6541 97.7139 21.9239 97.9119 23.2475C98.1099 24.5711 98.0375 25.9212 97.699 27.216Z" fill="#FF1B15"/>
<path d="M89.6132 23.1954C89.3442 23.1706 89.0736 23.2238 88.8343 23.3484C88.5949 23.4731 88.3969 23.6639 88.2641 23.8979C86.6574 26.9403 85.4926 30.1939 84.8047 33.5615C84.7956 33.6868 84.8132 33.8126 84.8564 33.9306C84.8996 34.0486 84.9675 34.1562 85.0555 34.2463C85.1435 34.3364 85.2497 34.407 85.3671 34.4534C85.4845 34.4998 85.6104 34.5209 85.7366 34.5155C86.4583 34.5155 86.8603 34.0188 87.2166 33.4192C88.6425 30.48 89.7147 27.3838 90.4111 24.1947C90.4293 23.7374 90.3654 23.2044 89.6132 23.1954ZM54.0414 35.1908C53.7369 38.2676 50.9109 38.9581 48.4442 38.9006C46.6566 38.8582 45.0457 38.0435 45 35.9782C45.833 30.769 47.6572 25.7656 50.3749 21.236C50.6847 20.6233 51.1653 20.1121 51.7593 19.7636C52.3533 19.4151 53.0356 19.244 53.7247 19.2706C55.2047 19.2706 55.5732 20.0277 55.5519 20.9362C54.6582 24.4154 53.3142 27.7645 51.5534 30.8996C51.0327 31.9656 50.5789 32.9013 50.2714 33.5857C53.3654 33.0528 54.1267 34.1642 54.0414 35.1908ZM60.3329 30.7481C60.1289 31.2993 59.7422 32.4501 59.4194 33.6705C60.4178 33.3808 61.4554 33.247 62.4951 33.2738C63.9812 33.3102 64.9313 33.9219 64.9313 35.1454C64.9313 38.1011 61.6394 38.9702 59.3615 38.9702C58.7732 39.0349 58.1777 38.9765 57.6135 38.7986C57.0493 38.6208 56.5287 38.3274 56.0853 37.9375C55.6418 37.5476 55.2854 37.0697 55.0388 36.5346C54.7922 35.9995 54.661 35.419 54.6535 34.8304C55.0201 30.8916 56.1668 27.0639 58.0277 23.5678C58.5726 22.0611 59.6273 20.7895 61.0111 19.9708C62.3949 19.1521 64.0218 18.8371 65.6134 19.0798C67.1665 19.0798 68.9632 19.74 68.9632 21.1996C68.9632 23.2196 67.2457 23.9888 65.5403 24.0857C64.701 24.1401 63.8594 24.1512 63.0189 24.119C62.5538 24.8783 62.1612 25.6793 61.8464 26.5114C65.0044 26.0693 66.3443 26.784 65.8053 28.601C65.0896 31.051 62.958 31.2145 60.3329 30.7481ZM75.8699 23.0954C75.496 23.116 75.1331 23.229 74.814 23.4241C74.495 23.6192 74.2299 23.8903 74.0427 24.2129C72.5772 26.8856 71.4977 29.7504 70.8361 32.7227C70.6259 34.1611 71.2502 34.4579 71.9324 34.4579C73.0317 34.4579 74.262 33.3011 74.6731 31.3962C74.6731 31.3962 72.5841 31.3478 73.1505 29.5035C73.7108 27.7167 74.7706 27.3291 76.5307 27.2594C79.9993 27.1171 79.6552 29.664 79.3781 31.0207C79.1264 33.1324 78.1329 35.0879 76.5729 36.5423C75.0129 37.9967 72.9866 38.8566 70.8513 38.9702C70.1951 39.0463 69.53 38.9762 68.9044 38.7652C68.2787 38.5541 67.7081 38.2073 67.2338 37.7499C66.7596 37.2924 66.3936 36.7358 66.1623 36.1204C65.931 35.5049 65.8403 34.846 65.8966 34.1914C66.1181 31.5329 66.7851 28.9299 67.87 26.4902C69.755 22.1869 71.704 19.1585 76.6617 19.1585C79.643 19.1585 81.9909 20.2215 81.6468 22.9955C81.661 23.8523 81.3427 24.6816 80.7579 25.311C80.1732 25.9404 79.3671 26.3215 78.5071 26.3752C77.9864 26.4145 75.8547 26.3752 76.5612 24.3583C76.8139 23.6617 76.9175 23.0954 75.8699 23.0954ZM94.6227 26.7295C94.0114 29.5122 93.0044 32.194 91.6322 34.6941C91.066 36.0136 90.1055 37.1281 88.881 37.8865C87.6564 38.6448 86.227 39.0105 84.7865 38.9339C82.5695 38.9066 80.0693 38.095 80.0511 34.6941C80.2415 31.8896 80.898 29.1358 81.9939 26.5447C83.5653 22.4504 85.1641 19.1101 90.2162 19.1676C96.1331 19.2584 95.0795 24.4824 94.6288 26.7567L94.6227 26.7295Z" fill="white"/>
<path fill-rule="evenodd" clip-rule="evenodd" d="M89.6959 18C88.4112 17.9516 87.1323 18.1966 85.9565 18.7164C84.7806 19.2362 83.7387 20.0172 82.9099 21C82.7345 20.6142 82.4974 20.2595 82.2079 19.95C81.4503 19.2263 80.5461 18.6738 79.5566 18.3296C78.567 17.9854 77.5151 17.8577 76.4719 17.955C74.2556 17.889 72.0879 18.6119 70.3549 19.995C69.7881 19.2879 69.0567 18.7303 68.2247 18.3711C67.3926 18.0118 66.4853 17.8617 65.5819 17.934C64.0915 17.7406 62.5766 17.9535 61.1972 18.5502C59.8179 19.147 58.6254 20.1053 57.7459 21.324C57.7854 20.9132 57.7397 20.4987 57.6117 20.1064C57.4836 19.7141 57.2761 19.3524 57.0019 19.044C56.5808 18.6825 56.0913 18.4094 55.5625 18.2409C55.0338 18.0724 54.4765 18.0119 53.9239 18.063C52.9383 18.0372 51.9647 18.2847 51.1112 18.7782C50.2576 19.2717 49.5573 19.9919 49.0879 20.859C47.4349 23.499 43.4209 32.199 43.5109 36.414C43.507 37.0731 43.6403 37.7259 43.9024 38.3307C44.1645 38.9355 44.5497 39.4791 45.0334 39.927C45.517 40.3748 46.0886 40.717 46.7118 40.9319C47.3349 41.1468 47.996 41.2296 48.6529 41.175C49.7037 41.2713 50.7632 41.1517 51.7661 40.8236C52.769 40.4955 53.6942 39.9658 54.4849 39.267C55.1305 39.9246 55.9066 40.4397 56.7632 40.7791C57.6199 41.1186 58.5382 41.2749 59.4589 41.238C60.5645 41.2952 61.6701 41.1278 62.7091 40.7457C63.7481 40.3636 64.6989 39.7748 65.5039 39.015C66.1651 39.7728 66.9908 40.3695 67.9179 40.7594C68.8449 41.1494 69.8488 41.3223 70.8529 41.265C72.3102 41.2556 73.7464 40.9166 75.0541 40.2734C76.3617 39.6302 77.5069 38.6995 78.4039 37.551C78.8934 38.7383 79.7509 39.7373 80.8504 40.401C81.9499 41.0647 83.2333 41.358 84.5119 41.238C90.3949 41.238 92.9779 37.194 95.1319 30.798C95.7827 28.8999 96.1988 26.9292 96.3709 24.93C96.5232 24.0079 96.458 23.063 96.1805 22.1706C95.903 21.2782 95.4208 20.463 94.7725 19.7899C94.1242 19.1168 93.3276 18.6045 92.4462 18.2937C91.5648 17.9829 90.623 17.8824 89.6959 18ZM97.6519 27.216V27.24C97.1275 29.9485 96.2774 32.5837 95.1199 35.088C93.0199 39.42 90.2059 42.75 84.7939 42.75C83.5511 42.8364 82.3049 42.6381 81.1503 42.1702C79.9957 41.7023 78.963 40.9772 78.1309 40.05C76.1228 41.8204 73.5329 42.789 70.8559 42.771C68.9281 42.8215 67.0406 42.2142 65.5039 41.049C63.7305 42.2144 61.6433 42.81 59.5219 42.756C57.7159 42.7947 55.9437 42.2624 54.4579 41.235C52.7104 42.3039 50.6765 42.8097 48.6319 42.684C47.7905 42.7368 46.9471 42.6186 46.1527 42.3365C45.3582 42.0543 44.6292 41.6141 44.0096 41.0425C43.39 40.4708 42.8926 39.7795 42.5475 39.0103C42.2025 38.2411 42.0169 37.4099 42.0019 36.567C41.8999 31.824 45.9019 23.148 47.7769 20.142C48.3944 19.0486 49.295 18.1418 50.384 17.5168C51.4731 16.8917 52.7104 16.5716 53.9659 16.59C56.8249 16.59 57.8659 17.406 58.3699 18.447C60.4577 16.9508 63.0105 16.2478 65.5699 16.464C67.3639 16.3707 69.1303 16.935 70.5379 18.051C72.3428 16.989 74.4083 16.4518 76.5019 16.5C77.7078 16.4023 78.921 16.547 80.07 16.9257C81.219 17.3044 82.2805 17.9094 83.1919 18.705C85.0428 17.2283 87.3593 16.4593 89.7259 16.536C91.0134 16.4329 92.3064 16.6511 93.4887 17.171C94.671 17.691 95.7057 18.4964 96.4999 19.515C97.2025 20.6541 97.6668 21.9239 97.8648 23.2475C98.0628 24.5711 97.9904 25.9212 97.6519 27.216Z" fill="#FFD800"/>
<path d="M89.3119 23.628C89.0469 23.6034 88.7804 23.6561 88.5446 23.7796C88.3088 23.9031 88.1137 24.0921 87.9829 24.324C86.4 27.3378 85.2526 30.5609 84.5749 33.897C84.5659 34.0211 84.5833 34.1457 84.6258 34.2626C84.6684 34.3795 84.7353 34.4861 84.822 34.5754C84.9087 34.6646 85.0133 34.7345 85.1289 34.7805C85.2445 34.8264 85.3686 34.8474 85.4929 34.842C86.2039 34.842 86.5999 34.35 86.9509 33.756C88.3556 30.8443 89.4119 27.7771 90.0979 24.618C90.1159 24.165 90.0529 23.637 89.3119 23.628ZM89.6959 17.829C88.4112 17.7805 87.1323 18.0255 85.9565 18.5454C84.7806 19.0652 83.7387 19.8462 82.9099 20.829C82.7345 20.4431 82.4974 20.0885 82.2079 19.779C81.4503 19.0553 80.5461 18.5027 79.5566 18.1585C78.567 17.8144 77.5151 17.6866 76.4719 17.784C74.2556 17.718 72.0879 18.4409 70.3549 19.824C69.7881 19.1168 69.0567 18.5593 68.2247 18.2C67.3926 17.8407 66.4853 17.6907 65.5819 17.763C64.0915 17.5696 62.5766 17.7825 61.1972 18.3792C59.8179 18.9759 58.6254 19.9343 57.7459 21.153C57.7854 20.7422 57.7397 20.3277 57.6117 19.9354C57.4836 19.5431 57.2761 19.1814 57.0019 18.873C56.5808 18.5115 56.0913 18.2384 55.5625 18.0698C55.0338 17.9013 54.4765 17.8408 53.9239 17.892C52.9383 17.8661 51.9647 18.1137 51.1112 18.6072C50.2576 19.1007 49.5573 19.8209 49.0879 20.688C47.4349 23.328 43.4209 32.028 43.5109 36.243C43.507 36.9021 43.6403 37.5549 43.9024 38.1597C44.1645 38.7645 44.5497 39.3081 45.0334 39.7559C45.517 40.2038 46.0886 40.546 46.7118 40.7609C47.3349 40.9757 47.996 41.0585 48.6529 41.004C49.7037 41.1003 50.7632 40.9807 51.7661 40.6526C52.769 40.3245 53.6942 39.7948 54.4849 39.096C55.1305 39.7535 55.9066 40.2686 56.7632 40.6081C57.6199 40.9476 58.5382 41.1039 59.4589 41.067C60.5645 41.1242 61.6701 40.9567 62.7091 40.5746C63.7481 40.1926 64.6989 39.6038 65.5039 38.844C66.1651 39.6018 66.9908 40.1984 67.9179 40.5884C68.8449 40.9783 69.8488 41.1513 70.8529 41.094C72.3102 41.0846 73.7464 40.7456 75.0541 40.1024C76.3617 39.4592 77.5069 38.5285 78.4039 37.38C78.8934 38.5673 79.7509 39.5663 80.8504 40.2299C81.9499 40.8936 83.2333 41.187 84.5119 41.067C90.3949 41.067 92.9779 37.023 95.1319 30.627C95.7827 28.7288 96.1988 26.7582 96.3709 24.759C96.5232 23.8369 96.458 22.892 96.1805 21.9996C95.903 21.1072 95.4208 20.292 94.7725 19.6189C94.1242 18.9458 93.3276 18.4334 92.4462 18.1227C91.5648 17.8119 90.623 17.7113 89.6959 17.829ZM54.2689 35.511C53.9689 38.559 51.1849 39.243 48.7549 39.186C46.9939 39.144 45.4069 38.337 45.3619 36.291C46.1825 31.1306 47.9796 26.1741 50.6569 21.687C50.9621 21.08 51.4356 20.5736 52.0207 20.2284C52.6059 19.8832 53.278 19.7136 53.9569 19.74C55.4149 19.74 55.7779 20.49 55.7569 21.39C54.8766 24.8366 53.5525 28.1543 51.8179 31.26C51.3049 32.316 50.8579 33.243 50.5549 33.921C53.6029 33.393 54.3529 34.494 54.2689 35.511ZM60.4669 31.11C60.2659 31.656 59.8849 32.796 59.5669 34.005C60.5505 33.718 61.5727 33.5854 62.5969 33.612C64.0609 33.648 64.9969 34.254 64.9969 35.466C64.9969 38.394 61.7539 39.255 59.5099 39.255C58.9303 39.3191 58.3438 39.2611 57.7879 39.085C57.232 38.9088 56.7192 38.6182 56.2824 38.232C55.8455 37.8457 55.4944 37.3723 55.2515 36.8422C55.0086 36.3121 54.8793 35.737 54.8719 35.154C55.2331 31.2521 56.3627 27.4603 58.1959 23.997C58.7328 22.5043 59.7717 21.2447 61.135 20.4336C62.4982 19.6226 64.101 19.3106 65.6689 19.551C67.1989 19.551 68.9689 20.205 68.9689 21.651C68.9689 23.652 67.2769 24.414 65.5969 24.51C64.77 24.5638 63.9409 24.5749 63.1129 24.543C62.6547 25.2952 62.268 26.0886 61.9579 26.913C65.0689 26.475 66.3889 27.183 65.8579 28.983C65.1529 31.41 63.0529 31.572 60.4669 31.11ZM75.7729 23.529C75.4045 23.5494 75.047 23.6613 74.7327 23.8546C74.4185 24.0478 74.1573 24.3164 73.9729 24.636C72.5292 27.2836 71.4657 30.1215 70.8139 33.066C70.6069 34.491 71.2219 34.785 71.8939 34.785C72.9769 34.785 74.1889 33.639 74.5939 31.752C74.5939 31.752 72.5359 31.704 73.0939 29.877C73.6459 28.107 74.6899 27.723 76.4239 27.654C79.8409 27.513 79.5019 30.036 79.2289 31.38C78.981 33.4719 78.0023 35.409 76.4655 36.8498C74.9287 38.2906 72.9325 39.1424 70.8289 39.255C70.1824 39.3303 69.5273 39.2609 68.9109 39.0518C68.2946 38.8427 67.7324 38.4992 67.2652 38.046C66.798 37.5929 66.4374 37.0415 66.2096 36.4318C65.9818 35.8222 65.8924 35.1695 65.9479 34.521C66.1661 31.8874 66.8231 29.3088 67.8919 26.892C69.7489 22.629 71.6689 19.629 76.5529 19.629C79.4899 19.629 81.8029 20.682 81.4639 23.43C81.4779 24.2787 81.1643 25.1002 80.5883 25.7238C80.0123 26.3473 79.2181 26.7248 78.3709 26.778C77.8579 26.817 75.7579 26.778 76.4539 24.78C76.7029 24.09 76.8049 23.529 75.7729 23.529ZM94.2469 27.129C93.6447 29.8856 92.6527 32.5423 91.3009 35.019C90.7431 36.3261 89.7969 37.4301 88.5905 38.1814C87.3842 38.9326 85.976 39.2949 84.5569 39.219C82.3729 39.192 79.9099 38.388 79.8919 35.019C80.0795 32.2407 80.7263 29.5127 81.8059 26.946C83.3539 22.89 84.9289 19.581 89.9059 19.638C95.7349 19.728 94.6969 24.903 94.2529 27.156L94.2469 27.129Z" fill="black"/>
</svg>
