<svg width="18" height="18" viewBox="0 0 18 18" fill="none" xmlns="http://www.w3.org/2000/svg">
<path d="M12.75 9C14.8211 9 16.5 7.32107 16.5 5.25C16.5 3.17893 14.8211 1.5 12.75 1.5C10.6789 1.5 9 3.17893 9 5.25C9 5.84988 9.14086 6.41686 9.3913 6.91968C9.45785 7.0533 9.48 7.20602 9.44142 7.35023L9.21807 8.18499C9.12111 8.54737 9.45263 8.87889 9.81501 8.78193L10.6498 8.55858C10.794 8.52 10.9467 8.54215 11.0803 8.6087C11.5831 8.85914 12.1501 9 12.75 9Z" stroke="black"/>
<path d="M10.5755 12.0204L10.213 11.6761L10.5755 12.0204ZM10.9171 11.6608L11.2797 12.0051L10.9171 11.6608ZM12.7296 11.4092L12.4802 11.8426V11.8426L12.7296 11.4092ZM14.1625 12.234L13.9131 12.6673L14.1625 12.234ZM14.5663 14.8188L14.9288 15.1632L14.5663 14.8188ZM13.5008 15.9405L13.1383 15.5962L13.5008 15.9405ZM12.5072 16.4723L12.5563 16.9699L12.5072 16.4723ZM5.11152 13.1064L5.47405 12.762L5.11152 13.1064ZM1.50217 5.97445L1.00288 6.00125L1.00288 6.00125L1.50217 5.97445ZM6.35814 7.12733L6.72067 7.47168L6.35814 7.12733ZM6.47568 5.01983L6.88394 4.73117V4.73117L6.47568 5.01983ZM5.52994 3.68221L5.12168 3.97087L5.12168 3.97087L5.52994 3.68221ZM3.19609 3.45648L3.55862 3.80083V3.80083L3.19609 3.45648ZM2.01889 4.69585L1.65636 4.35151H1.65636L2.01889 4.69585ZM7.54734 10.5419L7.90987 10.1976L7.54734 10.5419ZM10.5755 12.0204L10.9381 12.3647L11.2797 12.0051L10.9171 11.6608L10.5546 11.3164L10.213 11.6761L10.5755 12.0204ZM12.7296 11.4092L12.4802 11.8426L13.9131 12.6673L14.1625 12.234L14.4119 11.8006L12.979 10.9759L12.7296 11.4092ZM14.5663 14.8188L14.2037 14.4745L13.1383 15.5962L13.5008 15.9405L13.8634 16.2848L14.9288 15.1632L14.5663 14.8188ZM12.5072 16.4723L12.4581 15.9747C11.3656 16.0826 8.5374 15.9872 5.47405 12.762L5.11152 13.1064L4.74899 13.4507C8.05581 16.9322 11.2046 17.1033 12.5563 16.9699L12.5072 16.4723ZM5.11152 13.1064L5.47405 12.762C2.55625 9.69015 2.06299 7.09416 2.00145 5.94765L1.50217 5.97445L1.00288 6.00125C1.07657 7.37403 1.65983 10.1984 4.74899 13.4507L5.11152 13.1064ZM6.14303 7.35381L6.50556 7.69815L6.72067 7.47168L6.35814 7.12733L5.99561 6.78299L5.7805 7.00946L6.14303 7.35381ZM6.47568 5.01983L6.88394 4.73117L5.9382 3.39356L5.52994 3.68221L5.12168 3.97087L6.06742 5.30848L6.47568 5.01983ZM3.19609 3.45648L2.83356 3.11214L1.65636 4.35151L2.01889 4.69585L2.38142 5.0402L3.55862 3.80083L3.19609 3.45648ZM6.14303 7.35381C5.7805 7.00946 5.78004 7.00995 5.77957 7.01044C5.77941 7.01061 5.77894 7.01111 5.77863 7.01144C5.77799 7.01212 5.77734 7.01282 5.77668 7.01353C5.77536 7.01495 5.77398 7.01644 5.77256 7.018C5.76972 7.02113 5.76669 7.02453 5.76349 7.0282C5.75709 7.03556 5.75001 7.04405 5.74238 7.05369C5.72712 7.07296 5.7097 7.09687 5.69131 7.1256C5.65445 7.18321 5.61406 7.25971 5.57973 7.3562C5.50998 7.5522 5.4709 7.81458 5.51937 8.14536C5.61474 8.79626 6.04345 9.68463 7.18481 10.8863L7.54734 10.5419L7.90987 10.1976C6.83498 9.06592 6.56153 8.36023 6.50881 8.00039C6.48323 7.82581 6.50862 7.72865 6.52186 7.69146C6.52901 7.67135 6.53474 7.66284 6.53363 7.66459C6.53311 7.66539 6.53097 7.66865 6.52652 7.67426C6.5243 7.67707 6.5215 7.68047 6.51804 7.68445C6.51631 7.68645 6.51441 7.68858 6.51233 7.69087C6.51129 7.69201 6.51021 7.69318 6.50908 7.6944C6.50852 7.69501 6.50794 7.69562 6.50736 7.69625C6.50706 7.69656 6.50661 7.69704 6.50646 7.69719C6.50601 7.69767 6.50556 7.69815 6.14303 7.35381ZM7.54734 10.5419L7.18481 10.8863C8.32318 12.0848 9.17404 12.546 9.81238 12.6497C10.1392 12.7028 10.4012 12.6601 10.5975 12.5826C10.6936 12.5447 10.7692 12.5004 10.8256 12.4604C10.8537 12.4405 10.877 12.4217 10.8956 12.4053C10.9049 12.3971 10.9131 12.3896 10.9202 12.3828C10.9237 12.3793 10.9269 12.3761 10.9299 12.3731C10.9314 12.3716 10.9328 12.3702 10.9342 12.3688C10.9349 12.3681 10.9355 12.3674 10.9362 12.3667C10.9365 12.3664 10.937 12.3659 10.9371 12.3657C10.9376 12.3652 10.9381 12.3647 10.5755 12.0204C10.213 11.6761 10.2135 11.6756 10.2139 11.6751C10.2141 11.6749 10.2145 11.6745 10.2148 11.6742C10.2154 11.6735 10.216 11.6729 10.2166 11.6723C10.2177 11.6711 10.2189 11.67 10.22 11.6689C10.2221 11.6667 10.2242 11.6647 10.2261 11.6628C10.23 11.6591 10.2333 11.656 10.2362 11.6536C10.2418 11.6486 10.2455 11.6459 10.2471 11.6447C10.2504 11.6424 10.2452 11.6466 10.2306 11.6524C10.2054 11.6623 10.1258 11.6875 9.97269 11.6626C9.65099 11.6104 8.98776 11.3324 7.90987 10.1976L7.54734 10.5419ZM5.52994 3.68221L5.9382 3.39356C5.1989 2.34791 3.72389 2.17479 2.83356 3.11214L3.19609 3.45648L3.55862 3.80083C3.98005 3.35714 4.71653 3.39784 5.12168 3.97087L5.52994 3.68221ZM1.50217 5.97445L2.00145 5.94765C1.98422 5.62675 2.12435 5.31083 2.38142 5.0402L2.01889 4.69585L1.65636 4.35151C1.26299 4.76565 0.967255 5.33743 1.00288 6.00125L1.50217 5.97445ZM13.5008 15.9405L13.1383 15.5962C12.9222 15.8237 12.6902 15.9518 12.4581 15.9747L12.5072 16.4723L12.5563 16.9699C13.0973 16.9165 13.5377 16.6277 13.8634 16.2848L13.5008 15.9405ZM6.35814 7.12733L6.72067 7.47168C7.4246 6.73057 7.4758 5.56827 6.88394 4.73117L6.47568 5.01983L6.06742 5.30848C6.40022 5.77918 6.35151 6.40829 5.99561 6.78299L6.35814 7.12733ZM14.1625 12.234L13.9131 12.6673C14.5625 13.0412 14.6922 13.9602 14.2037 14.4745L14.5663 14.8188L14.9288 15.1632C15.8787 14.1631 15.6028 12.4861 14.4119 11.8006L14.1625 12.234ZM10.9171 11.6608L11.2797 12.0051C11.5891 11.6793 12.0713 11.6072 12.4802 11.8426L12.7296 11.4092L12.979 10.9759C12.1796 10.5157 11.1896 10.6479 10.5546 11.3164L10.9171 11.6608Z" fill="black"/>
</svg>
