<svg width="24" height="24" viewBox="0 0 24 24" fill="none" xmlns="http://www.w3.org/2000/svg">
<path d="M21.6501 7.23317L17.9855 5.40125C17.5302 4.57317 16.3958 4 15.0333 4C13.2576 4 11.8667 4.97375 11.8667 6.21667C11.8669 6.39236 11.8952 6.56689 11.9506 6.73362L10.4053 7.50629C9.8663 7.27681 9.28574 7.16118 8.7 7.16667C6.92429 7.16667 5.53333 8.14042 5.53333 9.38333C5.53355 9.55903 5.56188 9.73355 5.61725 9.90029L3.34992 11.0332C3.2447 11.0858 3.15622 11.1667 3.09442 11.2669C3.03261 11.367 2.99992 11.4823 3 11.6V16.6667C2.99992 16.7843 3.03261 16.8997 3.09442 16.9998C3.15622 17.0999 3.2447 17.1808 3.34992 17.2335L8.41658 19.7668C8.50457 19.8109 8.60161 19.8338 8.7 19.8338C8.79839 19.8338 8.89543 19.8109 8.98342 19.7668L21.6501 13.4335C21.7553 13.3808 21.8438 13.2999 21.9056 13.1998C21.9674 13.0997 22.0001 12.9843 22 12.8667V7.8C22.0001 7.68234 21.9674 7.56698 21.9056 7.46686C21.8438 7.36674 21.7553 7.28582 21.6501 7.23317ZM8.7 13.4256L5.04963 11.6L6.40417 10.9231C6.97733 11.3419 7.788 11.6 8.7 11.6C10.4757 11.6 11.8667 10.6262 11.8667 9.38333C11.8637 9.0154 11.743 8.65808 11.5223 8.36367L12.7375 7.75646C13.3107 8.17525 14.1213 8.43333 15.0333 8.43333C16.4884 8.43333 17.6846 7.77942 18.0694 6.8595L19.9504 7.8L8.7 13.4256ZM15.0333 5.26667C16.1211 5.26667 16.9333 5.76858 16.9333 6.21667C16.9333 6.66475 16.1211 7.16667 15.0333 7.16667C13.9456 7.16667 13.1333 6.66475 13.1333 6.21667C13.1333 5.76858 13.9456 5.26667 15.0333 5.26667ZM8.7 8.43333C9.78775 8.43333 10.6 8.93525 10.6 9.38333C10.6 9.83142 9.78775 10.3333 8.7 10.3333C7.93446 10.3333 7.30588 10.0847 7.00029 9.77917C6.98008 9.75292 6.95785 9.72831 6.93379 9.70554C6.85371 9.61657 6.80649 9.50286 6.8 9.38333C6.8 8.93525 7.61225 8.43333 8.7 8.43333ZM4.26667 12.6244L8.06667 14.5244V18.1756L4.26667 16.2756V12.6244ZM9.33333 18.1756V14.5244L20.7333 8.82442V12.4756L9.33333 18.1756Z" fill="white"/>
</svg>
