<svg width="17" height="17" viewBox="0 0 17 17" fill="none" xmlns="http://www.w3.org/2000/svg">
<path d="M8.5 0C13.1944 0 17 3.80558 17 8.5C17 13.1944 13.1944 17 8.5 17C3.80558 17 0 13.1944 0 8.5C0 3.80558 3.80558 0 8.5 0ZM8.5 1.18605C4.46062 1.18605 1.18605 4.46062 1.18605 8.5C1.18605 12.5394 4.46062 15.814 8.5 15.814C12.5394 15.814 15.814 12.5394 15.814 8.5C15.814 4.46062 12.5394 1.18605 8.5 1.18605ZM8.5 10.8721C8.93669 10.8721 9.2907 11.2261 9.2907 11.6628C9.2907 12.0995 8.93669 12.4535 8.5 12.4535C8.06331 12.4535 7.7093 12.0995 7.7093 11.6628C7.7093 11.2261 8.06331 10.8721 8.5 10.8721ZM8.5 3.95349C9.64631 3.95349 10.5756 4.88276 10.5756 6.02907C10.5756 6.79078 10.1644 7.45598 9.55529 7.81638C9.3999 7.90835 9.27134 8.00922 9.18774 8.10774C9.10677 8.20327 9.09302 8.26568 9.09302 8.30233V9.2907C9.09302 9.61822 8.82752 9.88372 8.5 9.88372C8.17248 9.88372 7.90698 9.61822 7.90698 9.2907V8.30233C7.90698 7.90232 8.08207 7.5774 8.28379 7.33969C8.48305 7.10496 8.73177 6.92534 8.95197 6.79506C9.21508 6.63925 9.38953 6.35436 9.38953 6.02907C9.38953 5.53779 8.99128 5.13953 8.5 5.13953C8.00872 5.13953 7.61047 5.53779 7.61047 6.02907C7.61047 6.35659 7.34496 6.62209 7.01744 6.62209C6.68992 6.62209 6.42442 6.35659 6.42442 6.02907C6.42442 4.88276 7.35369 3.95349 8.5 3.95349Z" fill="#DC1914"/>
</svg>
